<?xml version="1.0" encoding="UTF-8"?>
<svg width="88px" height="24px" viewBox="0 0 88 24" version="1.1" xmlns="http://www.w3.org/2000/svg" xmlns:xlink="http://www.w3.org/1999/xlink">
    <title>U-Plus Lite</title>
    <defs>
        <path d="M0,0 L87,0 L87,24 L0,24 L0,0 Z" id="path-1"></path>
    </defs>
    <g id="U-Plus-Lite" stroke="none" fill="none" xlink:href="#path-1" fill-rule="evenodd" stroke-width="1">
        <g>
            <path d="M13.2,5.76 L9.88,5.76 L8.08,14.74 C7.78,16.22 7.12,17.18 5.76,17.18 C4.76,17.18 4.34,16.5 4.34,15.7 C4.34,15.44 4.38,15.14 4.42,14.9 L6.26,5.76 L2.94,5.76 L1.14,14.72 C1.08,15 1.02,15.6 1.02,15.96 C1.02,18.38 2.84,20.12 5.56,20.12 C8.1,20.12 10.6,18.74 11.34,15.02 L13.2,5.76 Z" id="路径" fill="color(display-p3 0.000 0.000 0.000)" fill-rule="nonzero"></path>
            <polygon id="路径" fill="color(display-p3 0.000 0.000 0.000)" fill-rule="nonzero" points="19.14 12.64 12.9 12.64 12.32 15.56 18.56 15.56"></polygon>
            <path d="M30.94,9.72 C30.94,7.24 29.3,5.76 27,5.76 L21.82,5.76 L18.96,20 L22.28,20 L23.34,14.72 L25.54,14.72 C29.1,14.72 30.94,12.18 30.94,9.72 Z M27.6,10.02 C27.6,10.54 27.18,11.78 25.68,11.78 L23.94,11.78 L24.56,8.7 L26.42,8.7 C27.28,8.7 27.6,9.28 27.6,10.02 Z" id="形状" fill="color(display-p3 0.000 0.000 0.000)" fill-rule="nonzero"></path>
            <path d="M35.54,5.76 L32.42,5.76 L30.26,16.62 C30.2,16.92 30.18,17.18 30.18,17.5 C30.18,18.9 31.2,20 32.98,20 L34.52,20 L35.06,17.36 L33.92,17.36 C33.54,17.36 33.34,17.2 33.34,16.9 C33.34,16.78 33.36,16.72 33.38,16.6 L35.54,5.76 Z" id="路径" fill="color(display-p3 0.000 0.000 0.000)" fill-rule="nonzero"></path>
            <path d="M46,9.24 L42.88,9.24 L41.58,15.74 C41.34,16.94 40.64,17.3 39.92,17.3 C39.52,17.3 39.02,17 39.02,16.28 C39.02,16.12 39.04,15.92 39.08,15.74 L40.38,9.24 L37.26,9.24 L35.92,15.92 C35.84,16.28 35.78,16.72 35.78,17.16 C35.78,19.4 37.36,20.12 38.42,20.12 C39.36,20.12 40.38,19.74 41.06,19.06 L40.88,20 L43.86,20 L46,9.24 Z" id="路径" fill="color(display-p3 0.000 0.000 0.000)" fill-rule="nonzero"></path>
            <path d="M54.58,10.52 C53.62,9.48 52.5,9.12 50.92,9.12 C49.4,9.12 48.08,9.54 47.24,10.38 C46.48,11.14 46.1,12.12 46.1,13.2 C46.1,14.28 46.84,15.36 48.64,15.68 L50,15.92 C50.46,16 50.74,16.18 50.74,16.56 C50.74,17 50.16,17.44 49.06,17.44 C47.96,17.44 47.28,17.04 46.84,16.52 L44.62,18.48 C45.58,19.52 46.86,20.12 48.86,20.12 C50.22,20.12 51.74,19.8 52.64,18.94 C53.32,18.3 53.84,17.42 53.84,16.2 C53.84,14.78 53.16,13.66 51.24,13.32 L49.88,13.08 C49.42,13 49.22,12.8 49.22,12.5 C49.22,12.06 49.64,11.68 50.66,11.68 C51.24,11.68 52.08,11.92 52.46,12.4 L54.58,10.52 Z" id="路径" fill="color(display-p3 0.000 0.000 0.000)" fill-rule="nonzero"></path>
            <polygon id="路径" fill="color(display-p3 0.681 0.681 0.681)" fill-rule="nonzero" points="66.88 17.08 61.1 17.08 63.36 5.76 60.04 5.76 57.18 20 66.3 20"></polygon>
            <path d="M73.06,6.78 C73.06,5.74 72.2,4.88 71.16,4.88 C70.12,4.88 69.26,5.74 69.26,6.78 C69.26,7.82 70.12,8.68 71.16,8.68 C72.2,8.68 73.06,7.82 73.06,6.78 Z M72.22,9.66 L69.1,9.66 L67.04,20 L70.16,20 L72.22,9.66 Z" id="形状" fill="color(display-p3 0.681 0.681 0.681)" fill-rule="nonzero"></path>
            <path d="M78.52,9.66 L76.92,9.66 L77.54,6.58 L74.42,6.58 L73.8,9.66 L72.86,9.66 L72.38,12.08 L73.32,12.08 L72.42,16.62 C72.38,16.82 72.34,17.1 72.34,17.5 C72.34,18.9 73.36,20 75.14,20 L76.6,20 L77.12,17.38 L76.14,17.38 C75.76,17.38 75.52,17.24 75.52,16.88 C75.52,16.86 75.52,16.72 75.54,16.64 L76.44,12.08 L78.04,12.08 L78.52,9.66 Z" id="路径" fill="color(display-p3 0.681 0.681 0.681)" fill-rule="nonzero"></path>
            <path d="M87.46,13.04 C87.46,10.56 85.72,9.12 83.44,9.12 C79.8,9.12 77.9,12.48 77.9,16.3 C77.9,19.32 80.32,20.12 82.06,20.12 C83.64,20.12 85.22,19.58 86.3,18.54 L84.74,16.5 C84.08,17.14 83.34,17.5 82.44,17.5 C81.38,17.5 80.86,16.92 80.86,16.06 C80.86,15.92 80.88,15.82 80.9,15.62 L87.1,15.62 C87.3,14.78 87.46,13.86 87.46,13.04 Z M84.5,13.04 C84.5,13.16 84.48,13.4 84.44,13.56 L81.3,13.56 C81.7,12.18 82.44,11.68 83.26,11.68 C84.08,11.68 84.5,12.22 84.5,13.04 Z" id="形状" fill="color(display-p3 0.681 0.681 0.681)" fill-rule="nonzero"></path>
        </g>
    </g>
</svg>